<?xml version="1.0" encoding="UTF-8" standalone="no"?>
<!-- Created with Inkscape (http://www.inkscape.org/) -->

<svg
   xmlns:dc="http://purl.org/dc/elements/1.1/"
   xmlns:cc="http://creativecommons.org/ns#"
   xmlns:rdf="http://www.w3.org/1999/02/22-rdf-syntax-ns#"
   xmlns:svg="http://www.w3.org/2000/svg"
   xmlns="http://www.w3.org/2000/svg"
   xmlns:xlink="http://www.w3.org/1999/xlink"
   xmlns:sodipodi="http://sodipodi.sourceforge.net/DTD/sodipodi-0.dtd"
   xmlns:inkscape="http://www.inkscape.org/namespaces/inkscape"
   x="0px"
   y="0px"
   viewBox="0 0 96 96"
   id="svg6517"
   version="1.1"
   inkscape:version="0.48.5 r10040"
   sodipodi:docname="icon_green_bird_v4.svg"
   width="100%"
   height="100%">
  <defs
     id="defs6519">
    <linearGradient
       id="linearGradient4366">
      <stop
         style="stop-color:#a2c9bc;stop-opacity:1;"
         offset="0"
         id="stop4368" />
      <stop
         id="stop4374"
         offset="0.5"
         style="stop-color:#51645e;stop-opacity:0.49803922;" />
      <stop
         style="stop-color:#000000;stop-opacity:0;"
         offset="1"
         id="stop4370" />
    </linearGradient>
    <linearGradient
       inkscape:collect="always"
       xlink:href="#Background"
       id="linearGradient6461"
       gradientUnits="userSpaceOnUse"
       x1="0"
       y1="970.29498"
       x2="144"
       y2="970.29498"
       gradientTransform="matrix(0,-0.66666669,0.6660448,0,-866.25992,731.29077)" />
    <linearGradient
       id="Background">
      <stop
         id="stop4178"
         offset="0"
         style="stop-color:#467b6f;stop-opacity:1;" />
      <stop
         style="stop-color:#a2c9bc;stop-opacity:1;"
         offset="1"
         id="stop4376" />
    </linearGradient>
    <filter
       style="color-interpolation-filters:sRGB;"
       inkscape:label="Inner Shadow"
       id="filter1121">
      <feFlood
         flood-opacity="0.59999999999999998"
         flood-color="rgb(0,0,0)"
         result="flood"
         id="feFlood1123" />
      <feComposite
         in="flood"
         in2="SourceGraphic"
         operator="out"
         result="composite1"
         id="feComposite1125" />
      <feGaussianBlur
         in="composite1"
         stdDeviation="1"
         result="blur"
         id="feGaussianBlur1127" />
      <feOffset
         dx="0"
         dy="2"
         result="offset"
         id="feOffset1129" />
      <feComposite
         in="offset"
         in2="SourceGraphic"
         operator="atop"
         result="composite2"
         id="feComposite1131" />
    </filter>
    <filter
       style="color-interpolation-filters:sRGB;"
       inkscape:label="Drop Shadow"
       id="filter950">
      <feFlood
         flood-opacity="0.25"
         flood-color="rgb(0,0,0)"
         result="flood"
         id="feFlood952" />
      <feComposite
         in="flood"
         in2="SourceGraphic"
         operator="in"
         result="composite1"
         id="feComposite954" />
      <feGaussianBlur
         in="composite1"
         stdDeviation="1"
         result="blur"
         id="feGaussianBlur956" />
      <feOffset
         dx="0"
         dy="1"
         result="offset"
         id="feOffset958" />
      <feComposite
         in="SourceGraphic"
         in2="offset"
         operator="over"
         result="composite2"
         id="feComposite960" />
    </filter>
    <clipPath
       clipPathUnits="userSpaceOnUse"
       id="clipPath873">
      <g
         transform="matrix(0,-0.66666667,0.66604479,0,-258.25992,677.00001)"
         id="g875"
         inkscape:label="Layer 1"
         style="fill:#ff00ff;fill-opacity:1;stroke:none;display:inline">
        <path
           style="fill:#ff00ff;fill-opacity:1;stroke:none;display:inline"
           d="m 46.702703,898.22775 50.594594,0 C 138.16216,898.22775 144,904.06497 144,944.92583 l 0,50.73846 c 0,40.86071 -5.83784,46.69791 -46.702703,46.69791 l -50.594594,0 C 5.8378378,1042.3622 0,1036.525 0,995.66429 L 0,944.92583 C 0,904.06497 5.8378378,898.22775 46.702703,898.22775 Z"
           id="path877"
           inkscape:connector-curvature="0"
           sodipodi:nodetypes="sssssssss" />
      </g>
    </clipPath>
    <filter
       inkscape:collect="always"
       id="filter891"
       inkscape:label="Badge Shadow">
      <feGaussianBlur
         inkscape:collect="always"
         stdDeviation="0.71999962"
         id="feGaussianBlur893" />
    </filter>
    <linearGradient
       inkscape:collect="always"
       xlink:href="#linearGradient4366"
       id="linearGradient4372"
       x1="-277.6"
       y1="683.29077"
       x2="-162.4"
       y2="683.29077"
       gradientUnits="userSpaceOnUse" />
    <filter
       inkscape:label="Invert"
       x="0"
       y="0"
       width="1"
       height="1"
       inkscape:menu="Color"
       inkscape:menu-tooltip="Invert colors"
       color-interpolation-filters="sRGB"
       id="filter4408">
      <feColorMatrix
         type="saturate"
         values="1"
         result="fbSourceGraphic"
         id="feColorMatrix4410" />
      <feColorMatrix
         in="fbSourceGraphic"
         values="-1 0 0 0 1 0 -1 0 0 1 0 0 -1 0 1 0 0 0 1 0 "
         id="feColorMatrix4412" />
    </filter>
    <filter
       inkscape:label="Invert"
       x="0"
       y="0"
       width="1"
       height="1"
       inkscape:menu="Color"
       inkscape:menu-tooltip="Invert colors"
       color-interpolation-filters="sRGB"
       id="filter3844">
      <feColorMatrix
         type="saturate"
         values="1"
         result="fbSourceGraphic"
         id="feColorMatrix3846" />
      <feColorMatrix
         in="fbSourceGraphic"
         values="-1 0 0 0 1 0 -1 0 0 1 0 0 -1 0 1 0 0 0 1 0 "
         id="feColorMatrix3848" />
    </filter>
    <filter
       inkscape:label="Invert"
       x="0"
       y="0"
       width="1"
       height="1"
       inkscape:menu="Color"
       inkscape:menu-tooltip="Invert colors"
       color-interpolation-filters="sRGB"
       id="filter3844-1">
      <feColorMatrix
         type="saturate"
         values="1"
         result="fbSourceGraphic"
         id="feColorMatrix3846-7" />
      <feColorMatrix
         in="fbSourceGraphic"
         values="-1 0 0 0 1 0 -1 0 0 1 0 0 -1 0 1 0 0 0 1 0 "
         id="feColorMatrix3848-4" />
    </filter>
    <filter
       inkscape:label="Invert"
       x="0"
       y="0"
       width="1"
       height="1"
       inkscape:menu="Color"
       inkscape:menu-tooltip="Invert colors"
       color-interpolation-filters="sRGB"
       id="filter4408-0">
      <feColorMatrix
         type="saturate"
         values="1"
         result="fbSourceGraphic"
         id="feColorMatrix4410-9" />
      <feColorMatrix
         in="fbSourceGraphic"
         values="-1 0 0 0 1 0 -1 0 0 1 0 0 -1 0 1 0 0 0 1 0 "
         id="feColorMatrix4412-4" />
    </filter>
  </defs>
  <sodipodi:namedview
     id="base"
     pagecolor="#ffffff"
     bordercolor="#666666"
     borderopacity="1.0"
     inkscape:pageopacity="0.0"
     inkscape:pageshadow="2"
     inkscape:zoom="4.0745362"
     inkscape:cx="-14.40386"
     inkscape:cy="49.018169"
     inkscape:document-units="px"
     inkscape:current-layer="layer3"
     showgrid="true"
     fit-margin-top="0"
     fit-margin-left="0"
     fit-margin-right="0"
     fit-margin-bottom="0"
     inkscape:window-width="1920"
     inkscape:window-height="1138"
     inkscape:window-x="-8"
     inkscape:window-y="-8"
     inkscape:window-maximized="1"
     showborder="true"
     showguides="true"
     inkscape:guide-bbox="true"
     inkscape:showpageshadow="false">
    <inkscape:grid
       type="xygrid"
       id="grid821"
       empspacing="5"
       visible="true"
       enabled="true"
       snapvisiblegridlinesonly="true" />
    <sodipodi:guide
       orientation="1,0"
       position="15,125"
       id="guide823" />
    <sodipodi:guide
       orientation="0,1"
       position="64,80"
       id="guide825" />
    <sodipodi:guide
       orientation="1,0"
       position="80,40"
       id="guide827" />
    <sodipodi:guide
       orientation="0,1"
       position="64,16"
       id="guide829" />
  </sodipodi:namedview>
  <metadata
     id="metadata6522">
    <rdf:RDF>
      <cc:Work
         rdf:about="">
        <dc:format>image/svg+xml</dc:format>
        <dc:type
           rdf:resource="http://purl.org/dc/dcmitype/StillImage" />
        <dc:title></dc:title>
      </cc:Work>
    </rdf:RDF>
  </metadata>
  <g
     inkscape:label="BACKGROUND"
     inkscape:groupmode="layer"
     id="layer1"
     transform="translate(268,-635.29076)"
     style="display:inline">
    <path
       style="fill:url(#linearGradient6461);fill-opacity:1;stroke:url(#linearGradient4372);display:inline;filter:url(#filter1121)"
       d="m -268,700.15563 0,-33.72973 c 0,-27.24324 3.88785,-31.13513 31.10302,-31.13513 l 33.79408,0 c 27.21507,0 31.1029,3.89189 31.1029,31.13513 l 0,33.72973 c 0,27.24325 -3.88783,31.13514 -31.1029,31.13514 l -33.79408,0 c -27.21517,0 -31.10302,-3.89189 -31.10302,-31.13514 z"
       id="path6455"
       inkscape:connector-curvature="0"
       sodipodi:nodetypes="sssssssss" />
    <path
       style="fill:#000000"
       d=""
       id="path3031"
       inkscape:connector-curvature="0" />
    <path
       style="fill:#000000"
       d=""
       id="path3029"
       inkscape:connector-curvature="0" />
  </g>
  <g
     inkscape:groupmode="layer"
     id="layer3"
     inkscape:label="PLACE YOUR PICTOGRAM HERE"
     style="display:inline">
    <path
       style="fill:#ffffff;display:inline;fill-opacity:1;filter:url(#filter950)"
       d="m 16.42828,50.48764 c 0.0964,-2.75164 0.20314,-3.52635 0.68413,-4.96709 1.06727,-3.19684 2.00521,-4.57111 4.05315,-5.93867 1.67435,-1.11809 2.66298,-1.327 6.18086,-1.30609 2.86393,0.0171 4.47433,0.23405 8.2065,1.10603 1.00961,0.23589 2.7589,0.61932 3.88729,0.85207 1.12839,0.23275 3.16923,0.67032 4.53518,0.97237 1.36594,0.30207 2.90905,0.57495 3.42912,0.60643 l 0.94559,0.0573 1.07394,-2.05164 c 2.55194,-4.87519 3.71108,-7.04333 4.29463,-8.03302 0.34255,-0.58098 0.62282,-1.13417 0.62282,-1.22931 0,-0.0951 0.19437,-0.3489 0.43192,-0.56388 0.23756,-0.21498 0.43193,-0.47715 0.43193,-0.58258 0,-0.35396 1.6569,-2.43113 2.75709,-3.4564 2.70396,-2.51988 6.02876,-3.12219 10.52449,-1.90656 2.39072,0.64644 5.0635,1.51689 5.79806,1.88824 0.33825,0.17101 0.77557,0.34687 0.97181,0.3908 0.59568,0.13335 4.44496,1.85082 4.67603,2.08635 0.14653,0.14936 -0.23538,0.17676 -1.18778,0.0853 -3.44016,-0.33056 -5.8294,-0.59134 -7.16831,-0.78241 -5.06616,-0.72294 -8.17006,0.26119 -11.75156,3.72596 -1.71688,1.66093 -4.42818,5.13157 -5.8222,7.45277 -0.22953,0.38221 -0.98158,1.64559 -1.67123,2.80749 -0.68965,1.16192 -1.34383,2.25834 -1.45377,2.4365 -0.10994,0.17817 -0.45474,0.84065 -0.76626,1.4722 -0.4156,0.84254 -0.65642,1.11371 -0.90455,1.01849 -0.18598,-0.0714 -0.73463,-0.21898 -1.21925,-0.32804 -0.4846,-0.10906 -1.31842,-0.35479 -1.85292,-0.54606 -0.5345,-0.19128 -1.21478,-0.38017 -1.51172,-0.41976 -0.29695,-0.0396 -1.31737,-0.2725 -2.26758,-0.51755 -3.89738,-1.00511 -5.32591,-1.18815 -9.96367,-1.27659 -4.17615,-0.0797 -4.72754,-0.046 -6.47881,0.39453 -2.62832,0.66127 -4.24491,1.5276 -5.9803,3.20481 -1.57829,1.5254 -2.29001,2.69332 -3.10574,5.09649 l -0.51314,1.51173 0.11425,-3.26012 z"
       id="path2996"
       inkscape:connector-curvature="0" />
    <path
       style="fill:#ffffff;display:inline;fill-opacity:1;filter:url(#filter950)"
       d="m 16.09155,66.16082 0,-6.88709 6.06106,0.004 c 3.33361,0.002 6.48773,0.0596 7.00917,0.12727 1.62144,0.21052 2.44333,0.71771 3.04672,1.8801 0.095,0.1831 0.16562,0.78954 0.16164,1.38923 -0.006,0.89866 -0.0625,1.15867 -0.36391,1.67088 -0.19628,0.33363 -0.5959,0.7791 -0.88806,0.98994 l -0.53123,0.38334 0.43868,0.17193 c 0.58622,0.22976 1.27762,0.88477 1.63201,1.54613 0.2254,0.42061 0.29002,0.7801 0.29288,1.62913 0.006,1.8872 -0.66752,2.8487 -2.49352,3.55769 l -0.88886,0.34512 -6.73829,0.0397 -6.73829,0.0397 0,-6.8871 z m 10.80075,3.06153 c 0.35962,-0.32467 0.35962,-1.22273 0,-1.54739 -0.22879,-0.20653 -0.60456,-0.24383 -2.82349,-0.28016 l -2.55954,-0.0419 0,1.09575 0,1.09577 2.55954,-0.0419 c 2.21893,-0.0363 2.5947,-0.0736 2.82349,-0.28015 z m -0.35742,-5.21022 c 0.30499,-0.37523 0.32902,-0.81018 0.0646,-1.17082 -0.17566,-0.23961 -0.40053,-0.26551 -2.64116,-0.30416 l -2.44913,-0.0423 0,0.96829 0,0.9683 2.38447,-0.0518 c 2.30637,-0.0501 2.39286,-0.0621 2.64114,-0.36757 z m 8.65412,2.14279 0,-6.88119 2.70885,0 2.70887,0 0,6.88119 0,6.8812 -2.70887,0 -2.70885,0 0,-6.8812 z m 8.39745,0 0,-6.88119 5.92563,0.002 c 6.414,0.003 7.96671,0.0947 8.80829,0.52238 1.22898,0.62458 1.93714,1.7766 1.94379,3.16213 0.005,1.10882 -0.64361,2.40005 -1.5347,3.05375 l -0.63607,0.46663 0.50064,0.27936 c 0.75733,0.42261 0.99562,1.05685 1.11578,2.97007 0.0587,0.93302 0.19754,1.87639 0.3279,2.22627 0.44767,1.20171 0.74291,1.0794 -2.6056,1.0794 -3.4435,0 -3.06834,0.1968 -3.21504,-1.68656 -0.10404,-1.33557 -0.37754,-2.1399 -0.79151,-2.3278 -0.17164,-0.0779 -1.23669,-0.15038 -2.36673,-0.16105 l -2.05465,-0.0194 0,2.09742 0,2.09741 -2.70887,0 -2.70886,0 0,-6.8812 z M 53.71664,64.8956 c 0.2453,-0.13078 0.50195,-0.38439 0.57034,-0.56358 0.1619,-0.42418 -0.0727,-1.10222 -0.45116,-1.304 -0.16421,-0.0876 -1.25741,-0.18076 -2.55917,-0.21819 l -2.27247,-0.0653 0,1.24713 0,1.24712 2.13321,-0.0526 c 1.70555,-0.0421 2.22264,-0.10035 2.57925,-0.29045 z m 8.83182,1.26999 0,-6.89186 4.8421,0.004 c 5.14693,0.004 6.90762,0.1069 7.88953,0.46159 0.33523,0.12109 0.71408,0.24421 0.84192,0.27361 0.4241,0.0975 2.06449,1.12031 2.42068,1.50931 0.35364,0.38621 1.26728,1.93453 1.14154,1.93453 -0.0374,0 0.0376,0.25805 0.1661,0.57343 0.28811,0.70634 0.32893,3.28045 0.0638,4.02799 -0.0946,0.26742 -0.19879,0.62287 -0.2311,0.7899 -0.13311,0.68868 -1.33969,2.19421 -2.12327,2.6494 C 75.30297,72.8085 74.52473,72.93081 68,73 l -5.45158,0.0578 0,-6.89187 z m 9.95504,2.90193 c 0.54747,-0.12788 1.26128,-0.82474 1.59188,-1.5541 0.30858,-0.68075 0.36392,-1.92619 0.12331,-2.77522 -0.15776,-0.55674 -0.82964,-1.40436 -1.31248,-1.6558 -0.42774,-0.22274 -2.25058,-0.43554 -3.73086,-0.43554 l -1.34463,0 0,3.31753 0,3.31753 2.13325,-0.0597 c 1.17327,-0.0328 2.31606,-0.10246 2.53953,-0.15466 z"
       id="path3824"
       inkscape:connector-curvature="0" />
  </g>
  <g
     inkscape:groupmode="layer"
     id="layer2"
     inkscape:label="BADGE"
     style="display:none"
     sodipodi:insensitive="true">
    <g
       style="display:inline"
       transform="translate(-340.00001,-581)"
       id="g4394"
       clip-path="none">
      <g
         id="g855">
        <g
           inkscape:groupmode="maskhelper"
           id="g870"
           clip-path="url(#clipPath873)"
           style="opacity:0.6;filter:url(#filter891)">
          <path
             transform="matrix(1.4999992,0,0,1.4999992,-29.999795,-237.54282)"
             d="m 264,552.36218 c 0,6.62742 -5.37258,12 -12,12 -6.62742,0 -12,-5.37258 -12,-12 0,-6.62741 5.37258,-12 12,-12 6.62742,0 12,5.37259 12,12 z"
             sodipodi:ry="12"
             sodipodi:rx="12"
             sodipodi:cy="552.36218"
             sodipodi:cx="252"
             id="path844"
             style="color:#000000;fill:#000000;fill-opacity:1;fill-rule:nonzero;stroke:none;stroke-width:4;marker:none;visibility:visible;display:inline;overflow:visible;enable-background:accumulate"
             sodipodi:type="arc" />
        </g>
        <g
           id="g862">
          <path
             sodipodi:type="arc"
             style="color:#000000;fill:#f5f5f5;fill-opacity:1;fill-rule:nonzero;stroke:none;stroke-width:4;marker:none;visibility:visible;display:inline;overflow:visible;enable-background:accumulate"
             id="path4398"
             sodipodi:cx="252"
             sodipodi:cy="552.36218"
             sodipodi:rx="12"
             sodipodi:ry="12"
             d="m 264,552.36218 c 0,6.62742 -5.37258,12 -12,12 -6.62742,0 -12,-5.37258 -12,-12 0,-6.62741 5.37258,-12 12,-12 6.62742,0 12,5.37259 12,12 z"
             transform="matrix(1.4999992,0,0,1.4999992,-29.999795,-238.54282)" />
          <path
             transform="matrix(1.25,0,0,1.25,33,-100.45273)"
             d="m 264,552.36218 c 0,6.62742 -5.37258,12 -12,12 -6.62742,0 -12,-5.37258 -12,-12 0,-6.62741 5.37258,-12 12,-12 6.62742,0 12,5.37259 12,12 z"
             sodipodi:ry="12"
             sodipodi:rx="12"
             sodipodi:cy="552.36218"
             sodipodi:cx="252"
             id="path4400"
             style="color:#000000;fill:#dd4814;fill-opacity:1;fill-rule:nonzero;stroke:none;stroke-width:4;marker:none;visibility:visible;display:inline;overflow:visible;enable-background:accumulate"
             sodipodi:type="arc" />
          <path
             sodipodi:type="star"
             style="color:#000000;fill:#f5f5f5;fill-opacity:1;fill-rule:nonzero;stroke:none;stroke-width:3;marker:none;visibility:visible;display:inline;overflow:visible;enable-background:accumulate"
             id="path4459"
             sodipodi:sides="5"
             sodipodi:cx="666.19574"
             sodipodi:cy="589.50385"
             sodipodi:r1="7.2431178"
             sodipodi:r2="4.3458705"
             sodipodi:arg1="1.0471976"
             sodipodi:arg2="1.6755161"
             inkscape:flatsided="false"
             inkscape:rounded="0.1"
             inkscape:randomized="0"
             d="m 669.8173,595.77657 c -0.39132,0.22593 -3.62645,-1.90343 -4.07583,-1.95066 -0.44938,-0.0472 -4.05653,1.36297 -4.39232,1.06062 -0.3358,-0.30235 0.68963,-4.03715 0.59569,-4.47913 -0.0939,-0.44198 -2.5498,-3.43681 -2.36602,-3.8496 0.18379,-0.41279 4.05267,-0.59166 4.44398,-0.81759 0.39132,-0.22593 2.48067,-3.48704 2.93005,-3.4398 0.44938,0.0472 1.81505,3.67147 2.15084,3.97382 0.3358,0.30236 4.08294,1.2817 4.17689,1.72369 0.0939,0.44198 -2.9309,2.86076 -3.11469,3.27355 -0.18379,0.41279 0.0427,4.27917 -0.34859,4.5051 z"
             transform="matrix(1.511423,-0.16366377,0.16366377,1.511423,-755.37346,-191.93651)" />
        </g>
      </g>
    </g>
  </g>
</svg>
